# xmcd
#
# Track frame offsets:
#	150
#	15893
#	33263
#	45655
#	61193
#	75785
#	86253
#	100715
#	113795
#	127300
#	141975
#	157720
#	172080
#	186858
#	199350
#	212018
#	224995
#	237760
#	250060
#	262823
#	279145
#	292098
#
# Disc length: 4050 seconds
#
# Revision: 0
# Processed by: cddbd v1.4PL0 Copyright (c) Steve Scherf et al.
# Submitted via: dBpowerAMP V4.0
#
DISCID=2e0fd016
DTITLE=Tony Goodacre - Livin on Lovin
DYEAR=1900
DGENRE=Country
TTITLE0=Livin on Lovin
TTITLE1=No Such Place as Heaven
TTITLE2=Face in a Crowd
TTITLE3=When We First Fell in Love
TTITLE4=The Three Bells
TTITLE5=With this Ring
TTITLE6=Raise the Flag
TTITLE7=Love is just like Fishing
TTITLE8=The Best we're going to Get
TTITLE9=Song of the River
TTITLE10=The South Will Rise Again
TTITLE11=Edinburgh Song
TTITLE12=Life Turned Her That Way
TTITLE13=Bird on the Wing
TTITLE14=How Many Lovers
TTITLE15=Ballad of a Young Woman
TTITLE16=My Music City Friends
TTITLE17=A Part of Me
TTITLE18=Something Special
TTITLE19=I Need You
TTITLE20=Love's a Losing Game
TTITLE21=Mr County Music
EXTD=
EXTT0=
EXTT1=
EXTT2=
EXTT3=
EXTT4=
EXTT5=
EXTT6=
EXTT7=
EXTT8=
EXTT9=
EXTT10=
EXTT11=
EXTT12=
EXTT13=
EXTT14=
EXTT15=
EXTT16=
EXTT17=
EXTT18=
EXTT19=
EXTT20=
EXTT21=
PLAYORDER=
